<mxfile host="app.diagrams.net" modified="2020-08-28T07:14:22.756Z" agent="5.0 (Macintosh; Intel Mac OS X 10_14_6) AppleWebKit/537.36 (KHTML, like Gecko) Chrome/83.0.4103.97 Safari/537.36" etag="pv8QhCDU8xqEO7iEsdPa" version="13.6.5" type="github">
  <diagram id="tFSUSpJ0nl37Ls0yrfyK" name="Page-1">
    <mxGraphModel dx="2703" dy="1629" grid="1" gridSize="10" guides="1" tooltips="1" connect="1" arrows="1" fold="1" page="1" pageScale="1" pageWidth="1654" pageHeight="2336" math="0" shadow="0">
      <root>
        <mxCell id="0" />
        <mxCell id="1" parent="0" />
        <mxCell id="WHwYtZFQxy6y379ea1HH-6" value="" style="outlineConnect=0;dashed=0;verticalLabelPosition=bottom;verticalAlign=top;align=center;html=1;shape=mxgraph.aws3.s3;fillColor=#E05243;gradientColor=none;" vertex="1" parent="1">
          <mxGeometry x="970" y="718" width="76.5" height="93" as="geometry" />
        </mxCell>
        <mxCell id="WHwYtZFQxy6y379ea1HH-7" value="" style="outlineConnect=0;fontColor=#232F3E;gradientColor=none;fillColor=#277116;strokeColor=none;dashed=0;verticalLabelPosition=bottom;verticalAlign=top;align=center;html=1;fontSize=12;fontStyle=0;aspect=fixed;pointerEvents=1;shape=mxgraph.aws4.bucket;" vertex="1" parent="1">
          <mxGeometry x="1151.75" y="778" width="75" height="78" as="geometry" />
        </mxCell>
        <mxCell id="WHwYtZFQxy6y379ea1HH-11" value="" style="outlineConnect=0;fontColor=#232F3E;gradientColor=none;fillColor=#277116;strokeColor=none;dashed=0;verticalLabelPosition=bottom;verticalAlign=top;align=center;html=1;fontSize=12;fontStyle=0;aspect=fixed;pointerEvents=1;shape=mxgraph.aws4.bucket;" vertex="1" parent="1">
          <mxGeometry x="1151.75" y="630" width="75" height="78" as="geometry" />
        </mxCell>
        <mxCell id="WHwYtZFQxy6y379ea1HH-12" value="" style="endArrow=classic;html=1;" edge="1" parent="1" source="WHwYtZFQxy6y379ea1HH-6" target="WHwYtZFQxy6y379ea1HH-11">
          <mxGeometry width="50" height="50" relative="1" as="geometry">
            <mxPoint x="1066.75" y="740" as="sourcePoint" />
            <mxPoint x="1146.75" y="710" as="targetPoint" />
            <Array as="points" />
          </mxGeometry>
        </mxCell>
        <mxCell id="WHwYtZFQxy6y379ea1HH-17" value="" style="endArrow=classic;html=1;" edge="1" parent="1" source="WHwYtZFQxy6y379ea1HH-6" target="WHwYtZFQxy6y379ea1HH-7">
          <mxGeometry width="50" height="50" relative="1" as="geometry">
            <mxPoint x="1051.75" y="782.5" as="sourcePoint" />
            <mxPoint x="1131.75" y="811" as="targetPoint" />
          </mxGeometry>
        </mxCell>
        <mxCell id="WHwYtZFQxy6y379ea1HH-18" value="profile_image&lt;br&gt;" style="text;html=1;align=center;verticalAlign=middle;resizable=0;points=[];autosize=1;" vertex="1" parent="1">
          <mxGeometry x="1144.25" y="710" width="90" height="20" as="geometry" />
        </mxCell>
        <mxCell id="WHwYtZFQxy6y379ea1HH-19" value="book_image&lt;br&gt;" style="text;html=1;align=center;verticalAlign=middle;resizable=0;points=[];autosize=1;" vertex="1" parent="1">
          <mxGeometry x="1146.75" y="856" width="80" height="20" as="geometry" />
        </mxCell>
        <mxCell id="WHwYtZFQxy6y379ea1HH-20" value="&lt;font style=&quot;font-size: 20px&quot;&gt;S3&lt;/font&gt;" style="text;html=1;align=center;verticalAlign=middle;resizable=0;points=[];autosize=1;strokeWidth=1;shadow=1;" vertex="1" parent="1">
          <mxGeometry x="988.25" y="827" width="40" height="20" as="geometry" />
        </mxCell>
        <mxCell id="WHwYtZFQxy6y379ea1HH-21" value="" style="shape=image;html=1;verticalAlign=top;verticalLabelPosition=bottom;labelBackgroundColor=#ffffff;imageAspect=0;aspect=fixed;image=https://cdn1.iconfinder.com/data/icons/famfamfam_flag_icons/az.png;shadow=1;strokeWidth=1;" vertex="1" parent="1">
          <mxGeometry x="570" y="360" width="16" height="16" as="geometry" />
        </mxCell>
        <mxCell id="WHwYtZFQxy6y379ea1HH-22" value="" style="rounded=1;whiteSpace=wrap;html=1;shadow=1;strokeWidth=1;" vertex="1" parent="1">
          <mxGeometry x="260" y="177" width="670" height="660" as="geometry" />
        </mxCell>
        <mxCell id="WHwYtZFQxy6y379ea1HH-24" value="" style="outlineConnect=0;dashed=0;verticalLabelPosition=bottom;verticalAlign=top;align=center;html=1;shape=mxgraph.aws3.virtual_private_cloud;fillColor=#F58534;gradientColor=none;shadow=1;strokeWidth=1;" vertex="1" parent="1">
          <mxGeometry x="270" y="170" width="79.5" height="54" as="geometry" />
        </mxCell>
        <mxCell id="WHwYtZFQxy6y379ea1HH-34" value="Public subnet" style="points=[[0,0],[0.25,0],[0.5,0],[0.75,0],[1,0],[1,0.25],[1,0.5],[1,0.75],[1,1],[0.75,1],[0.5,1],[0.25,1],[0,1],[0,0.75],[0,0.5],[0,0.25]];outlineConnect=0;gradientColor=none;html=1;whiteSpace=wrap;fontSize=12;fontStyle=0;shape=mxgraph.aws4.group;grIcon=mxgraph.aws4.group_security_group;grStroke=0;strokeColor=#248814;fillColor=#E9F3E6;verticalAlign=top;align=left;spacingLeft=30;fontColor=#248814;dashed=0;shadow=1;" vertex="1" parent="1">
          <mxGeometry x="290" y="339" width="270" height="167" as="geometry" />
        </mxCell>
        <mxCell id="WHwYtZFQxy6y379ea1HH-35" value="Public subnet" style="points=[[0,0],[0.25,0],[0.5,0],[0.75,0],[1,0],[1,0.25],[1,0.5],[1,0.75],[1,1],[0.75,1],[0.5,1],[0.25,1],[0,1],[0,0.75],[0,0.5],[0,0.25]];outlineConnect=0;gradientColor=none;html=1;whiteSpace=wrap;fontSize=12;fontStyle=0;shape=mxgraph.aws4.group;grIcon=mxgraph.aws4.group_security_group;grStroke=0;strokeColor=#248814;fillColor=#E9F3E6;verticalAlign=top;align=left;spacingLeft=30;fontColor=#248814;dashed=0;shadow=1;" vertex="1" parent="1">
          <mxGeometry x="630" y="336" width="270" height="170" as="geometry" />
        </mxCell>
        <mxCell id="WHwYtZFQxy6y379ea1HH-36" value="Private subnet" style="points=[[0,0],[0.25,0],[0.5,0],[0.75,0],[1,0],[1,0.25],[1,0.5],[1,0.75],[1,1],[0.75,1],[0.5,1],[0.25,1],[0,1],[0,0.75],[0,0.5],[0,0.25]];outlineConnect=0;gradientColor=none;html=1;whiteSpace=wrap;fontSize=12;fontStyle=0;shape=mxgraph.aws4.group;grIcon=mxgraph.aws4.group_security_group;grStroke=0;strokeColor=#147EBA;fillColor=#E6F2F8;verticalAlign=top;align=left;spacingLeft=30;fontColor=#147EBA;dashed=0;shadow=1;" vertex="1" parent="1">
          <mxGeometry x="290" y="560" width="270" height="160" as="geometry" />
        </mxCell>
        <mxCell id="WHwYtZFQxy6y379ea1HH-37" value="Private subnet" style="points=[[0,0],[0.25,0],[0.5,0],[0.75,0],[1,0],[1,0.25],[1,0.5],[1,0.75],[1,1],[0.75,1],[0.5,1],[0.25,1],[0,1],[0,0.75],[0,0.5],[0,0.25]];outlineConnect=0;gradientColor=none;html=1;whiteSpace=wrap;fontSize=12;fontStyle=0;shape=mxgraph.aws4.group;grIcon=mxgraph.aws4.group_security_group;grStroke=0;strokeColor=#147EBA;fillColor=#E6F2F8;verticalAlign=top;align=left;spacingLeft=30;fontColor=#147EBA;dashed=0;shadow=1;" vertex="1" parent="1">
          <mxGeometry x="630" y="560" width="270" height="160" as="geometry" />
        </mxCell>
        <mxCell id="WHwYtZFQxy6y379ea1HH-38" value="EC2" style="outlineConnect=0;dashed=0;verticalLabelPosition=bottom;verticalAlign=top;align=center;html=1;shape=mxgraph.aws3.ec2;fillColor=#F58534;gradientColor=none;shadow=1;strokeWidth=1;" vertex="1" parent="1">
          <mxGeometry x="430" y="370" width="76.5" height="93" as="geometry" />
        </mxCell>
        <mxCell id="WHwYtZFQxy6y379ea1HH-39" value="EC2" style="outlineConnect=0;dashed=0;verticalLabelPosition=bottom;verticalAlign=top;align=center;html=1;shape=mxgraph.aws3.ec2;fillColor=#F58534;gradientColor=none;shadow=1;strokeWidth=1;" vertex="1" parent="1">
          <mxGeometry x="674.5" y="376" width="76.5" height="93" as="geometry" />
        </mxCell>
        <mxCell id="WHwYtZFQxy6y379ea1HH-40" value="RDS&lt;br&gt;" style="outlineConnect=0;dashed=0;verticalLabelPosition=bottom;verticalAlign=top;align=center;html=1;shape=mxgraph.aws3.rds;fillColor=#2E73B8;gradientColor=none;shadow=1;strokeWidth=1;" vertex="1" parent="1">
          <mxGeometry x="679" y="599.5" width="72" height="81" as="geometry" />
        </mxCell>
        <mxCell id="WHwYtZFQxy6y379ea1HH-41" value="Redis" style="outlineConnect=0;dashed=0;verticalLabelPosition=bottom;verticalAlign=top;align=center;html=1;shape=mxgraph.aws3.redis;fillColor=#2E73B8;gradientColor=none;shadow=1;strokeWidth=1;" vertex="1" parent="1">
          <mxGeometry x="810" y="608.5" width="60" height="63" as="geometry" />
        </mxCell>
        <mxCell id="WHwYtZFQxy6y379ea1HH-42" value="ALB&lt;br&gt;" style="outlineConnect=0;dashed=0;verticalLabelPosition=bottom;verticalAlign=top;align=center;html=1;shape=mxgraph.aws3.application_load_balancer;fillColor=#F58534;gradientColor=none;shadow=1;strokeWidth=1;" vertex="1" parent="1">
          <mxGeometry x="560" y="230" width="70" height="70" as="geometry" />
        </mxCell>
        <mxCell id="WHwYtZFQxy6y379ea1HH-60" value="" style="endArrow=classic;html=1;" edge="1" parent="1" source="WHwYtZFQxy6y379ea1HH-39" target="WHwYtZFQxy6y379ea1HH-40">
          <mxGeometry width="50" height="50" relative="1" as="geometry">
            <mxPoint x="740" y="473" as="sourcePoint" />
            <mxPoint x="790" y="423" as="targetPoint" />
            <Array as="points" />
          </mxGeometry>
        </mxCell>
        <mxCell id="WHwYtZFQxy6y379ea1HH-61" value="" style="endArrow=classic;html=1;" edge="1" parent="1" source="WHwYtZFQxy6y379ea1HH-38" target="WHwYtZFQxy6y379ea1HH-40">
          <mxGeometry width="50" height="50" relative="1" as="geometry">
            <mxPoint x="560" y="530" as="sourcePoint" />
            <mxPoint x="610" y="480" as="targetPoint" />
          </mxGeometry>
        </mxCell>
        <mxCell id="WHwYtZFQxy6y379ea1HH-62" value="" style="endArrow=classic;html=1;" edge="1" parent="1" source="WHwYtZFQxy6y379ea1HH-39" target="WHwYtZFQxy6y379ea1HH-41">
          <mxGeometry width="50" height="50" relative="1" as="geometry">
            <mxPoint x="560" y="530" as="sourcePoint" />
            <mxPoint x="610" y="480" as="targetPoint" />
          </mxGeometry>
        </mxCell>
        <mxCell id="WHwYtZFQxy6y379ea1HH-63" value="" style="endArrow=classic;html=1;" edge="1" parent="1" source="WHwYtZFQxy6y379ea1HH-38" target="WHwYtZFQxy6y379ea1HH-41">
          <mxGeometry width="50" height="50" relative="1" as="geometry">
            <mxPoint x="560" y="530" as="sourcePoint" />
            <mxPoint x="610" y="480" as="targetPoint" />
          </mxGeometry>
        </mxCell>
        <mxCell id="WHwYtZFQxy6y379ea1HH-65" value="" style="pointerEvents=1;shadow=0;dashed=0;html=1;strokeColor=none;labelPosition=center;verticalLabelPosition=bottom;verticalAlign=top;align=center;fillColor=#505050;shape=mxgraph.mscae.intune.user_group" vertex="1" parent="1">
          <mxGeometry x="1120" y="20" width="61.75" height="70" as="geometry" />
        </mxCell>
        <mxCell id="WHwYtZFQxy6y379ea1HH-66" value="&lt;font style=&quot;font-size: 20px&quot;&gt;user&lt;br&gt;&lt;br&gt;&lt;/font&gt;" style="text;html=1;align=center;verticalAlign=middle;resizable=0;points=[];autosize=1;" vertex="1" parent="1">
          <mxGeometry x="1131.75" y="110" width="50" height="40" as="geometry" />
        </mxCell>
        <mxCell id="WHwYtZFQxy6y379ea1HH-67" value="" style="outlineConnect=0;dashed=0;verticalLabelPosition=bottom;verticalAlign=top;align=center;html=1;shape=mxgraph.aws3.route_53;fillColor=#F58536;gradientColor=none;shadow=1;strokeWidth=1;" vertex="1" parent="1">
          <mxGeometry x="866.5" y="24.5" width="70.5" height="85.5" as="geometry" />
        </mxCell>
        <mxCell id="WHwYtZFQxy6y379ea1HH-68" value="" style="endArrow=classic;html=1;exitX=0.012;exitY=0.686;exitDx=0;exitDy=0;exitPerimeter=0;" edge="1" parent="1" source="WHwYtZFQxy6y379ea1HH-65" target="WHwYtZFQxy6y379ea1HH-67">
          <mxGeometry width="50" height="50" relative="1" as="geometry">
            <mxPoint x="670" y="290" as="sourcePoint" />
            <mxPoint x="720" y="240" as="targetPoint" />
          </mxGeometry>
        </mxCell>
        <mxCell id="WHwYtZFQxy6y379ea1HH-69" value="&lt;font style=&quot;font-size: 20px&quot;&gt;route53&lt;/font&gt;" style="text;html=1;align=center;verticalAlign=middle;resizable=0;points=[];autosize=1;" vertex="1" parent="1">
          <mxGeometry x="857" y="120" width="80" height="20" as="geometry" />
        </mxCell>
        <mxCell id="WHwYtZFQxy6y379ea1HH-70" value="" style="outlineConnect=0;dashed=0;verticalLabelPosition=bottom;verticalAlign=top;align=center;html=1;shape=mxgraph.aws3.ssl_padlock;fillColor=#D2D3D3;gradientColor=none;shadow=1;strokeWidth=1;" vertex="1" parent="1">
          <mxGeometry x="600" y="32" width="63" height="78" as="geometry" />
        </mxCell>
        <mxCell id="WHwYtZFQxy6y379ea1HH-71" value="" style="endArrow=classic;html=1;" edge="1" parent="1" source="WHwYtZFQxy6y379ea1HH-70">
          <mxGeometry width="50" height="50" relative="1" as="geometry">
            <mxPoint x="740" y="350" as="sourcePoint" />
            <mxPoint x="886" y="72" as="targetPoint" />
          </mxGeometry>
        </mxCell>
        <mxCell id="WHwYtZFQxy6y379ea1HH-72" value="&lt;font style=&quot;font-size: 20px&quot;&gt;SSL化&lt;/font&gt;" style="text;html=1;align=center;verticalAlign=middle;resizable=0;points=[];autosize=1;" vertex="1" parent="1">
          <mxGeometry x="690" y="45" width="70" height="20" as="geometry" />
        </mxCell>
        <mxCell id="WHwYtZFQxy6y379ea1HH-74" value="" style="endArrow=classic;html=1;exitX=0.29;exitY=0.91;exitDx=0;exitDy=0;exitPerimeter=0;" edge="1" parent="1" source="WHwYtZFQxy6y379ea1HH-67" target="WHwYtZFQxy6y379ea1HH-42">
          <mxGeometry width="50" height="50" relative="1" as="geometry">
            <mxPoint x="740" y="460" as="sourcePoint" />
            <mxPoint x="790" y="410" as="targetPoint" />
          </mxGeometry>
        </mxCell>
        <mxCell id="WHwYtZFQxy6y379ea1HH-76" value="" style="endArrow=classic;startArrow=classic;html=1;entryX=0;entryY=0.21;entryDx=0;entryDy=0;entryPerimeter=0;" edge="1" parent="1" source="WHwYtZFQxy6y379ea1HH-40" target="WHwYtZFQxy6y379ea1HH-6">
          <mxGeometry width="50" height="50" relative="1" as="geometry">
            <mxPoint x="610" y="410" as="sourcePoint" />
            <mxPoint x="660" y="360" as="targetPoint" />
            <Array as="points">
              <mxPoint x="715" y="738" />
            </Array>
          </mxGeometry>
        </mxCell>
        <mxCell id="WHwYtZFQxy6y379ea1HH-78" value="" style="endArrow=classic;html=1;entryX=0.392;entryY=0.022;entryDx=0;entryDy=0;entryPerimeter=0;" edge="1" parent="1" target="WHwYtZFQxy6y379ea1HH-6">
          <mxGeometry width="50" height="50" relative="1" as="geometry">
            <mxPoint x="1000" y="420" as="sourcePoint" />
            <mxPoint x="660" y="420" as="targetPoint" />
          </mxGeometry>
        </mxCell>
        <mxCell id="WHwYtZFQxy6y379ea1HH-79" value="" style="endArrow=none;html=1;" edge="1" parent="1" source="WHwYtZFQxy6y379ea1HH-39">
          <mxGeometry width="50" height="50" relative="1" as="geometry">
            <mxPoint x="827" y="450" as="sourcePoint" />
            <mxPoint x="1000" y="420" as="targetPoint" />
            <Array as="points" />
          </mxGeometry>
        </mxCell>
        <mxCell id="WHwYtZFQxy6y379ea1HH-85" value="" style="fontColor=#0066CC;verticalAlign=top;verticalLabelPosition=bottom;labelPosition=center;align=center;html=1;outlineConnect=0;fillColor=#CCCCCC;strokeColor=#6881B3;gradientColor=none;gradientDirection=north;strokeWidth=2;shape=mxgraph.networks.pc;shadow=1;" vertex="1" parent="1">
          <mxGeometry x="30" y="330" width="130" height="100" as="geometry" />
        </mxCell>
        <mxCell id="WHwYtZFQxy6y379ea1HH-86" value="" style="aspect=fixed;html=1;points=[];align=center;image;fontSize=12;image=img/lib/mscae/Docker.svg;shadow=1;strokeWidth=1;" vertex="1" parent="1">
          <mxGeometry x="80" y="350" width="50" height="41" as="geometry" />
        </mxCell>
        <mxCell id="WHwYtZFQxy6y379ea1HH-87" value="" style="dashed=0;outlineConnect=0;html=1;align=center;labelPosition=center;verticalLabelPosition=bottom;verticalAlign=top;shape=mxgraph.weblogos.github;shadow=1;strokeWidth=1;fontSize=16;" vertex="1" parent="1">
          <mxGeometry x="67.5" y="24.5" width="75" height="75" as="geometry" />
        </mxCell>
        <mxCell id="WHwYtZFQxy6y379ea1HH-89" value="" style="endArrow=classic;html=1;fontSize=16;exitX=0.582;exitY=0.087;exitDx=0;exitDy=0;exitPerimeter=0;" edge="1" parent="1" source="WHwYtZFQxy6y379ea1HH-85" target="WHwYtZFQxy6y379ea1HH-87">
          <mxGeometry width="50" height="50" relative="1" as="geometry">
            <mxPoint x="103" y="320" as="sourcePoint" />
            <mxPoint x="630" y="370" as="targetPoint" />
          </mxGeometry>
        </mxCell>
        <mxCell id="WHwYtZFQxy6y379ea1HH-90" value="&lt;font style=&quot;font-size: 30px&quot;&gt;circleci&lt;/font&gt;" style="text;html=1;align=center;verticalAlign=middle;resizable=0;points=[];autosize=1;fontSize=16;" vertex="1" parent="1">
          <mxGeometry x="239.5" y="45" width="110" height="30" as="geometry" />
        </mxCell>
        <mxCell id="WHwYtZFQxy6y379ea1HH-91" value="" style="endArrow=classic;html=1;fontSize=16;" edge="1" parent="1" source="WHwYtZFQxy6y379ea1HH-87" target="WHwYtZFQxy6y379ea1HH-90">
          <mxGeometry width="50" height="50" relative="1" as="geometry">
            <mxPoint x="580" y="420" as="sourcePoint" />
            <mxPoint x="630" y="370" as="targetPoint" />
          </mxGeometry>
        </mxCell>
        <mxCell id="WHwYtZFQxy6y379ea1HH-93" value="" style="shape=image;html=1;verticalAlign=top;verticalLabelPosition=bottom;labelBackgroundColor=#ffffff;imageAspect=0;aspect=fixed;image=https://cdn4.iconfinder.com/data/icons/logos-brands-5/24/nginx-128.png;shadow=1;strokeWidth=1;fontSize=16;" vertex="1" parent="1">
          <mxGeometry x="310" y="391" width="78" height="78" as="geometry" />
        </mxCell>
        <mxCell id="WHwYtZFQxy6y379ea1HH-94" value="" style="endArrow=classic;html=1;fontSize=16;" edge="1" parent="1" source="WHwYtZFQxy6y379ea1HH-42" target="WHwYtZFQxy6y379ea1HH-38">
          <mxGeometry width="50" height="50" relative="1" as="geometry">
            <mxPoint x="580" y="400" as="sourcePoint" />
            <mxPoint x="630" y="350" as="targetPoint" />
          </mxGeometry>
        </mxCell>
        <mxCell id="WHwYtZFQxy6y379ea1HH-95" value="" style="endArrow=classic;html=1;fontSize=16;" edge="1" parent="1" source="WHwYtZFQxy6y379ea1HH-42" target="WHwYtZFQxy6y379ea1HH-39">
          <mxGeometry width="50" height="50" relative="1" as="geometry">
            <mxPoint x="580" y="400" as="sourcePoint" />
            <mxPoint x="630" y="350" as="targetPoint" />
          </mxGeometry>
        </mxCell>
        <mxCell id="WHwYtZFQxy6y379ea1HH-96" value="" style="endArrow=classic;html=1;fontSize=16;" edge="1" parent="1" source="WHwYtZFQxy6y379ea1HH-90" target="WHwYtZFQxy6y379ea1HH-42">
          <mxGeometry width="50" height="50" relative="1" as="geometry">
            <mxPoint x="580" y="400" as="sourcePoint" />
            <mxPoint x="630" y="350" as="targetPoint" />
          </mxGeometry>
        </mxCell>
        <mxCell id="WHwYtZFQxy6y379ea1HH-97" value="&lt;font style=&quot;font-size: 20px&quot;&gt;local&lt;/font&gt;" style="text;html=1;align=center;verticalAlign=middle;resizable=0;points=[];autosize=1;fontSize=16;" vertex="1" parent="1">
          <mxGeometry x="65" y="450" width="60" height="30" as="geometry" />
        </mxCell>
        <mxCell id="WHwYtZFQxy6y379ea1HH-98" value="" style="shape=image;html=1;verticalAlign=top;verticalLabelPosition=bottom;labelBackgroundColor=#ffffff;imageAspect=0;aspect=fixed;image=https://cdn4.iconfinder.com/data/icons/logos-brands-5/24/nginx-128.png;shadow=1;strokeWidth=1;fontSize=16;" vertex="1" parent="1">
          <mxGeometry x="786.5" y="383" width="80" height="80" as="geometry" />
        </mxCell>
        <mxCell id="WHwYtZFQxy6y379ea1HH-99" value="https通信" style="text;html=1;align=center;verticalAlign=middle;resizable=0;points=[];autosize=1;fontSize=16;" vertex="1" parent="1">
          <mxGeometry x="988.25" y="40" width="80" height="20" as="geometry" />
        </mxCell>
      </root>
    </mxGraphModel>
  </diagram>
</mxfile>
